<svg xmlns="http://www.w3.org/2000/svg" width="300" height="300" font-family="Bitstream Vera Sans,Liberation Sans, Arial, sans-serif" font-size="72" text-anchor="middle" viewBox="-300 -300 600 600"><circle r="280" fill="#FFF" stroke="#AAA" stroke-width="10"/><switch style="fill:#444"><text systemLanguage="bn"><tspan x="0" y="-8">ছবি উপলভ্য</tspan><tspan x="0" y="80">নয়</tspan></text><text systemLanguage="de"><tspan x="0" y="-8">KEIN BILD</tspan><tspan x="0" y="80">VERFÜGBAR</tspan></text><text systemLanguage="en"><tspan x="0" y="-8">NO IMAGE</tspan><tspan x="0" y="80">AVAILABLE</tspan></text><text systemLanguage="es"><tspan x="0" y="-8">IMAGEN NO</tspan><tspan x="0" y="80">DISPONIBLE</tspan></text><text systemLanguage="id"><tspan x="0" y="-8">GAMBAR TAK</tspan><tspan x="0" y="80">TERSEDIA</tspan></text><text systemLanguage="ko"><tspan x="0" y="-8">이미지가</tspan><tspan x="0" y="80">없습니다</tspan></text><text systemLanguage="ro"><tspan x="0" y="-8">IMAGINE</tspan><tspan x="0" y="80">INDISPONIBILĂ</tspan></text><text systemLanguage="tr"><tspan x="0" y="-8">GÖRÜNTÜ</tspan><tspan x="0" y="80">YOK</tspan></text><text systemLanguage="vi"><tspan x="0" y="-8">KHÔNG</tspan><tspan x="0" y="80">CÓ ẢNH</tspan></text><text systemLanguage="ba"><tspan x="0" y="-8">ҺҮРӘТТӘР</tspan><tspan x="0" y="80">ЮҠ</tspan></text><text systemLanguage="ang"><tspan x="0" y="-8">NĀ BILDE</tspan><tspan x="0" y="80">ĀFĒR</tspan></text><text systemLanguage="fr"><tspan x="0" y="-8">AUCUNE IMAGE</tspan><tspan x="0" y="80">DISPONIBLE</tspan></text><text systemLanguage="bjn"><tspan x="0" y="-8">GAMBAR KADA</tspan><tspan x="0" y="80">TERSEDIA</tspan></text><text systemLanguage="el"><tspan x="0" y="-8">ΧΩΡΙΣ</tspan><tspan x="0" y="80">ΕΙΚΟΝΑ</tspan></text><text><tspan x="0" y="-8">NO IMAGE</tspan><tspan x="0" y="80">AVAILABLE</tspan></text></switch></svg>